<?xml version="1.0" standalone="no"?>
<!DOCTYPE svg PUBLIC "-//W3C//DTD SVG 1.1//EN" "http://www.w3.org/Graphics/SVG/1.1/DTD/svg11.dtd" >
<!--
2013-9-30: Created.
-->
<svg>
<metadata>
Created by iconfont
</metadata>
<defs>

<font id="iconfont" horiz-adv-x="1024" >
  <font-face
    font-family="iconfont"
    font-weight="500"
    font-stretch="normal"
    units-per-em="1024"
    ascent="896"
    descent="-128"
  />
    <missing-glyph />
    
    <glyph glyph-name="-quanxian-cooperation" unicode="&#58927;" d="M768.568889 446.862222l-226.929778-130.958222V54.044444l226.986667-130.958222L995.555556 54.044444v261.859556l-226.986667 130.958222zM22.755556 315.904V54.044444l226.986666-130.958222L476.728889 54.044444v261.859556L249.742222 446.862222 22.755556 315.904z m713.272888 449.194667L509.041778 896 281.941333 765.098667v-261.859556l227.043556-131.015111 226.986667 131.015111V765.098667z"  horiz-adv-x="1024" />

    
    <glyph glyph-name="-quanxian-download" unicode="&#58931;" d="M1062.208 690.432H632.064l-56.192 118.016a54.272 54.272 0 0 1-49.472 31.424H109.568a54.272 54.272 0 0 1-54.272-54.272V12.799999999999955c0-46.72 37.952-84.672 84.736-84.672h923.136a84.672 84.672 0 0 1 84.736 84.672V605.76a84.736 84.736 0 0 1-85.696 84.672z m-461.568-548.16L402.688 390.656h120.896v111.36h154.176v-111.36h119.872l-196.992-248.384z"  horiz-adv-x="1152" />

    
    <glyph glyph-name="-workflow-accountgroup" unicode="&#58928;" d="M192 576a85.333333 85.333333 0 1 1 0 170.666667 85.333333 85.333333 0 0 1 0-170.666667z m0-64a149.333333 149.333333 0 1 0 0 298.666667 149.333333 149.333333 0 0 0 0-298.666667zM192 21.33333300000004a85.333333 85.333333 0 1 1 0 170.666667 85.333333 85.333333 0 0 1 0-170.666667z m0-64a149.333333 149.333333 0 1 0 0 298.666667 149.333333 149.333333 0 0 0 0-298.666667zM437.333333 693.333333a32 32 0 0 0 0 64h512a32 32 0 1 0 0-64h-512zM437.333333 565.333333a32 32 0 0 0 0 64h512a32 32 0 1 0 0-64h-512zM437.333333 138.66666699999996a32 32 0 1 0 0 64h512a32 32 0 1 0 0-64h-512zM437.333333 10.666666999999961a32 32 0 1 0 0 64h512a32 32 0 1 0 0-64h-512z"  horiz-adv-x="1024" />

    
    <glyph glyph-name="-workflow-notes" unicode="&#58929;" d="M650.666667-96l277.333333 261.802667V768A96 96 0 0 1 832 864h-640A96 96 0 0 1 96 768v-768a96 96 0 0 1 96-96h458.666667z m-55.125334 64H192a32 32 0 0 0-31.701333 27.648L160 0V768a32 32 0 0 0 27.648 31.701333L192 800h640a32 32 0 0 0 31.701333-27.648L864 768v-548.394667h-188.458667c-42.069333 0-76.544-32.426667-79.744-73.728l-0.256-6.229333v-171.648zM736 592a32 32 0 0 1 4.352 63.701333l-4.352 0.298667H288a32 32 0 0 1-4.352-63.701333l4.352-0.298667h448z m0-224a32 32 0 0 1 4.352 63.701333l-4.352 0.298667H288a32 32 0 0 1-4.352-63.701333l4.352-0.298667h448z m-288-224a32 32 0 0 1 4.352 63.701333l-4.352 0.298667H288a32 32 0 0 1-4.352-63.701333l4.352-0.298667h160z m211.541333-143.616v139.264c0 7.68 5.504 14.165333 12.8 15.658667l3.2 0.341333 148.437334-0.042667-164.437334-155.221333z"  horiz-adv-x="1024" />

    
    <glyph glyph-name="-wrokflow-userpic" unicode="&#58930;" d="M979.936 276.64l-0.576-2.56a476.864 476.864 0 0 0-103.712-203.424 482.944 482.944 0 0 0-58.176-56.96A478.048 478.048 0 0 0 512-96a478.048 478.048 0 0 0-305.472 109.728l-0.896 0.736A482.784 482.784 0 0 0 75.84 183.36a476.992 476.992 0 0 0-31.776 93.312l-1.76 8A477.376 477.376 0 0 0 32 384C32 649.088 246.912 864 512 864c265.088 0 480-214.912 480-480a487.968 487.968 0 0 0-10.304-99.36l-1.76-8z m-380.672 63.712h-174.528a218.176 218.176 0 0 1-218.08-210.656l-0.096-7.52v-65.888A446.4 446.4 0 0 1 512-64a446.4 446.4 0 0 1 305.472 120.32v65.856a218.176 218.176 0 0 1-210.688 218.048l-7.52 0.128zM512 733.12A174.56 174.56 0 1 1 512 384a174.56 174.56 0 0 1 0 349.12z"  horiz-adv-x="1024" />

    
    <glyph glyph-name="-workflow-process" unicode="&#58932;" d="M938.666667 810.666667a42.666667 42.666667 0 0 0 42.666666-42.666667v-170.666667a42.666667 42.666667 0 0 0-42.666666-42.666666H426.666667a42.666667 42.666667 0 0 0-42.666667 42.666666V650.709333l-261.034667-0.042666a10.666667 10.666667 0 0 1-10.410666-8.234667l-0.256-2.645333 4.181333-212.437334a10.666667 10.666667 0 0 1 8.277333-10.154666l2.389334-0.298667 314.282666 0.042667a64 64 0 0 0 109.696 0H896a74.666667 74.666667 0 0 0 74.410667-68.565334l0.256-6.144V128a74.666667 74.666667 0 0 0-68.522667-74.410667L896 53.33333300000004l-256 0.042667V0a42.666667 42.666667 0 0 0-42.666667-42.666667H85.333333a42.666667 42.666667 0 0 0-42.666666 42.666667v170.666667a42.666667 42.666667 0 0 0 42.666666 42.666666h512a42.666667 42.666667 0 0 0 42.666667-42.666666v-53.290667l256-0.042667a10.666667 10.666667 0 0 1 10.368 8.234667L906.666667 128v214.229333a10.666667 10.666667 0 0 1-8.234667 10.410667L896 352.853333h-343.722667a64 64 0 0 0-111.957333 0H127.146667a74.666667 74.666667 0 0 0-74.24 66.858667l-0.426667 6.357333L48.341333 640a74.666667 74.666667 0 0 0 68.522667 74.410667l6.144 0.256L384 714.709333V768a42.666667 42.666667 0 0 0 42.666667 42.666667h512z m-362.666667-661.333334h-469.333333v-128h469.333333v128z m341.333333 597.333334h-469.333333v-128h469.333333v128z"  horiz-adv-x="1024" />

    
    <glyph glyph-name="iconfont1" unicode="&#58926;" d=""  horiz-adv-x="1024" />

    
    <glyph glyph-name="tguanli" unicode="&#58884;" d="M868.864 649.882c52.94 0 95.846-42.906 95.846-95.796v-479.078a95.795 95.795 0 0 0-95.795-95.795H198.144a95.795 95.795 0 0 0-95.744 95.744v479.18c0 52.89 42.906 95.796 95.795 95.796h670.72z m-301.056-95.796h-68.506L479.54 494.9a190.87 190.87 0 0 1-35.43-14.694l-55.757 27.853-48.384-48.384 27.904-55.757c-5.99-11.162-11.008-23.04-14.643-35.43l-59.239-19.764v-68.403l59.136-19.712c3.687-12.288 8.653-24.166 14.695-35.482l-27.853-55.756 48.435-48.384 55.757 27.955c11.264-6.144 23.194-11.06 35.43-14.695l19.712-59.238h68.404l19.763 59.136a193.13 193.13 0 0 1 35.43 14.746l55.808-27.956 48.384 48.436-27.904 55.808c6.042 11.264 11.008 23.142 14.643 35.43l59.188 19.712v68.403l-59.136 19.763a185.6 185.6 0 0 1-14.695 35.43l27.904 55.809-48.435 48.384-55.757-27.904a182.426 182.426 0 0 1-35.43 14.643l-19.763 59.238z m-34.253-154.01a85.555 85.555 0 1 0 0-171.11 85.555 85.555 0 0 0 0 171.11zM234.138 793.6h598.886c23.962 0 35.942-11.98 35.942-35.942s-11.98-35.943-35.942-35.943H234.138c-23.962 0-35.943 11.981-35.943 35.943 0 23.961 11.981 35.942 35.943 35.942z"  horiz-adv-x="1024" />

    
    <glyph glyph-name="iconfont" unicode="&#58881;" d=""  horiz-adv-x="1024" />

    
    <glyph glyph-name="ic_set" unicode="&#58948;" d="M975.274667 448.938667c-3.669333 19.84-23.338667 39.808-43.648 44.330666l-15.104 3.370667a150.784 150.784 0 0 0-87.68 67.328 142.336 142.336 0 0 0-16.170667 107.946667l4.437333 13.866666c6.144 19.242667-1.792 45.781333-17.621333 58.837334 0 0-14.336 11.690667-54.741333 34.304-40.405333 22.570667-57.941333 28.714667-57.941334 28.714666-19.584 6.826667-47.232 0.341333-61.44-14.506666l-10.581333-11.008a153.856 153.856 0 0 0-104.106667-40.106667c-40.490667 0-77.226667 15.36-104.490666 40.362667l-10.24 10.752c-14.08 14.762667-41.813333 21.333333-61.397334 14.464 0 0-17.493333-6.144-58.026666-28.757334-40.32-22.613333-54.570667-34.218667-54.570667-34.218666-15.872-13.056-23.850667-39.466667-17.664-58.794667l4.394667-13.994667a143.317333 143.317333 0 0 0-16.128-107.861333 150.698667 150.698667 0 0 0-88.234667-67.413333l-14.72-3.242667c-20.266667-4.48-39.936-24.448-43.605333-44.288 0 0-3.328-17.792-3.328-63.018667s3.328-62.976 3.328-62.976c3.669333-19.882667 23.338667-39.808 43.605333-44.373333l14.378667-3.114667a151.466667 151.466667 0 0 0 88.576-67.712c20.224-33.962667 24.874667-72.576 16.085333-107.946666l-4.352-13.824c-6.186667-19.2 1.792-45.738667 17.706667-58.794667 0 0 14.293333-11.690667 54.698666-34.304 40.405333-22.613333 57.898667-28.714667 57.898667-28.714667 19.626667-6.826667 47.232-0.298667 61.397333 14.421334l10.112 10.538666c27.221333 25.173333 64 40.448 104.533334 40.448 40.533333 0 77.397333-15.402667 104.704-40.448l10.069333-10.538666c14.165333-14.72 41.685333-21.290667 61.354667-14.421334 0 0 17.493333 6.186667 58.026666 28.714667 40.362667 22.613333 54.613333 34.304 54.613334 34.304 15.914667 13.056 23.765333 39.466667 17.706666 58.794667l-4.437333 14.250666a143.488 143.488 0 0 0 16.170667 107.52 151.68 151.68 0 0 0 88.490666 67.712l14.378667 3.242667c20.352 4.48 40.021333 24.405333 43.648 44.288 0 0 3.328 17.792 3.328 63.061333-0.128 45.013333-3.413333 62.805333-3.413333 62.805334z m-464.64-208.853334c-83.029333 0-150.4 65.322667-150.4 145.92 0 80.426667 67.370667 145.664 150.4 145.664s150.314667-65.28 150.314666-145.792c0-80.597333-67.285333-145.792-150.314666-145.792z"  horiz-adv-x="1024" />

    
    <glyph glyph-name="ic_yongyin" unicode="&#58947;" d="M842.325333 13.397333H181.333333a46.933333 46.933333 0 0 1-47.189333-46.634666c0-25.856 21.162667-46.762667 47.146667-46.762667H842.24c26.026667 0 47.232 20.906667 47.232 46.677333a46.933333 46.933333 0 0 1-47.146667 46.72z m59.306667 245.205334a118.442667 118.442667 0 0 1-83.669333 34.432h-140.245334a71.168 71.168 0 0 0-71.594666 70.741333 68.906667 68.906667 0 0 0 31.36 58.752 238.933333 238.933333 0 0 1 23.594666 16.853333l0.384-0.085333c55.125333 45.226667 86.613333 111.274667 86.229334 180.565333 0.426667 70.4-32.085333 137.258667-88.618667 182.613334a237.781333 237.781333 0 0 1-199.552 45.056l-0.298667-0.64h-0.128V846.933333l0.298667 0.597334a234.325333 234.325333 0 0 1-180.224-188.288 232.448 232.448 0 0 1 106.581333-236.8c20.181333-13.269333 32.042667-35.328 31.573334-58.709334 0-39.04-32-70.741333-71.466667-70.741333H202.453333c-64.085333 0-116.053333-51.456-116.053333-114.858667a118.570667 118.570667 0 0 1 35.285333-84.266666c22.656-22.4 53.333333-34.986667 85.248-34.986667h611.157334c65.066667 0 117.888 52.224 117.888 116.608a116.352 116.352 0 0 1-34.304 83.072z"  horiz-adv-x="1024" />

    
    <glyph glyph-name="ic_renyuanguanli" unicode="&#58946;" d="M975.402667 99.541333a44.8 44.8 0 0 0-48.469334 21.546667c-9.642667 17.109333-7.168 38.485333 6.101334 52.906667a153.088 153.088 0 0 1-62.634667 36.949333 44.8 44.8 0 0 0-42.837333-31.488 44.8 44.8 0 0 0-42.538667 31.914667 152.832 152.832 0 0 1-62.890667-36.266667c13.098667-14.592 15.36-36.010667 5.589334-53.034667-9.813333-16.981333-29.568-25.6-48.682667-21.162666-2.858667-11.690667-4.565333-23.893333-4.693333-36.437334 0-12.288 1.450667-24.533333 4.394666-36.48a44.8 44.8 0 0 0 48.512-21.546666c9.642667-17.109333 7.210667-38.485333-6.058666-52.906667 17.408-16.938667 38.826667-29.824 62.549333-36.949333a44.8 44.8 0 0 0 42.88 31.488c20.138667-0.085333 36.906667-13.482667 42.581333-31.914667a153.173333 153.173333 0 0 1 62.848 36.266667 45.44 45.44 0 0 0-5.632 53.034666c9.813333 16.981333 29.610667 25.6 48.725334 21.162667 6.101333 23.893333 6.186667 48.938667 0.341333 72.96h-0.085333z m-148.48-94.933333a58.922667 58.922667 0 0 0-58.538667 59.434667 59.008 59.008 0 0 0 59.093333 58.88c32.426667-0.085333 58.581333-26.709333 58.538667-59.434667a59.008 59.008 0 0 0-59.093333-58.88z m-287.914667 245.546667c-5.973333 6.613333-11.52 13.653333-16.554667 21.077333-19.328 8.490667-38.954667 16.128-58.922666 22.826667-4.608 1.450667-32.682667 11.349333-14.72 70.485333h-0.213334c2.944 3.072 5.717333 6.272 8.533334 9.386667 3.669333 2.389333 6.912 5.248 10.325333 7.936a116.778667 116.778667 0 0 0-11.008 24.96c-11.093333 36.693333-3.072 73.173333 18.432 96.213333a182.784 182.784 0 0 0 96.768 146.602667c-1.408 0.725333-2.602667 1.450667-4.181333 2.005333a24.576 24.576 0 0 1-8.32 0.938667 389.461333 389.461333 0 0 1-1.28 26.026666c0 95.914667-77.866667 174.336-173.098667 174.336h-52.053333c-95.189333 0-173.098667-78.421333-173.098667-174.336 0 0-0.938667-9.813333-1.28-26.026666a24.576 24.576 0 0 1-8.32-0.938667c-19.072-5.845333-27.392-33.834667-18.773333-62.549333 6.357333-20.906667 20.053333-36.181333 34.304-40.789334 11.178667-67.285333 38.4-142.762667 102.4-179.285333 2.432-2.688 4.693333-5.333333 7.253333-7.893333 18.346667-48.384-15.957333-65.536-22.869333-68.138667-94.933333-34.56-209.28-97.578667-209.28-159.701333v-23.338667c0-84.736 165.589333-103.978667 316.586666-103.978667 20.736 0 41.728 0.426667 62.464 1.28a97.152 97.152 0 0 0-31.36 73.130667v16.682667c0 72.405333 80.682667 123.178667 148.266667 153.088zM698.112 208.170667a207.445333 207.445333 0 0 0 53.290667 36.650666c0.597333 2.688 1.024 5.205333 1.962666 8.362667h-0.256a239.36 239.36 0 0 1 6.570667 7.253333c40.618667 26.922667 58.453333 77.226667 65.92 122.453334 10.026667 3.285333 19.626667 14.08 24.064 28.672 6.101333 20.181333 0.170667 39.978667-13.141333 44.032-1.962667 0.64-3.925333 0.128-5.845334 0a318.976 318.976 0 0 1-0.768 18.944c0 67.584-54.613333 122.88-121.472 122.88h-36.522666c-66.773333 0-121.429333-55.296-121.429334-122.88 0 0-0.597333-7.296-0.853333-18.901334-1.92 0.085333-3.968 0.426667-5.802667 0-13.354667-4.096-19.2-23.893333-13.098666-44.032 4.352-14.805333 14.08-25.429333 24.021333-28.714666 7.765333-46.848 26.752-98.986667 70.528-125.226667 2.048-2.304 4.096-4.693333 6.357333-6.912 12.8-34.133333-11.264-46.250667-16.042666-48-66.517333-24.362667-146.773333-68.864-146.773334-112.725333v-16.384c0-50.773333 83.669333-68.096 173.696-72.32-0.938667 2.56-2.133333 4.693333-2.773333 7.253333a207.573333 207.573333 0 0 0 0.426667 99.072c5.418667 21.845333 22.613333 37.674667 43.093333 41.941333a57.429333 57.429333 0 0 0 14.848 58.581334z"  horiz-adv-x="1024" />

    
    <glyph glyph-name="-shangxia" unicode="&#58924;" d="M903.2 48L903.2 48l-144-160 0 0c-8.8-9.6-21.6-16-35.2-16-14.4 0-26.4 6.4-35.2 16l0 0-144 160 0 0c-8 8.8-12.8 20-12.8 32 0 26.4 21.6 48 48 48 14.4 0 26.4-6.4 35.2-16l0 0 60-67.2L675.2 272l0 0L675.2 480l0 0L675.2 723.2l0 0L675.2 848c0 26.4 21.6 48 48 48 26.4 0 48-21.6 48-48l0-304 0-112c0 0 0 0 0 0l0-96 0-291.2L832 112l0 0c8.8 9.6 21.6 16 35.2 16 26.4 0 48-21.6 48-48C916 68 911.2 56.799999999999955 903.2 48zM452 640c-14.4 0-26.4 6.4-35.2 16l0 0-60 67.2L356.8 432c0 0 0 0 0 0l0-96 0-112 0-304c0-26.4-21.6-48-48-48-26.4 0-48 21.6-48 48l0 124.8 0 0L260.8 288l0 0L260.8 496l0 0L260.8 723.2 200 656l0 0c-8.8-9.6-21.6-16-35.2-16-26.4 0-48 21.6-48 48 0 12 4.8 23.2 12.8 32l0 0L272 880l0 0c8.8 9.6 21.6 16 35.2 16 14.4 0 26.4-6.4 35.2-16l0 0 144-160 0 0c8-8.8 12.8-20 12.8-32C500 661.6 478.4 640 452 640z"  horiz-adv-x="1024" />

    
    <glyph glyph-name="-zuoyou" unicode="&#58925;" d="M1008 560.8L1008 560.8l-160-144 0 0c-8.8-8-20-12.8-32-12.8-26.4 0-48 21.6-48 48 0 14.4 6.4 26.4 16 35.2l0 0 67.2 60L560 547.2c0 0 0 0 0 0L464 547.2l0 0L352 547.2 48 547.2c-26.4 0-48 21.6-48 48 0 26.4 21.6 48 48 48l124.8 0 0 0L416 643.2l0 0 208 0 0 0 227.2 0L784 704l0 0c-9.6 8.8-16 21.6-16 35.2 0 26.4 21.6 48 48 48 12 0 23.2-4.8 32-12.8l0 0 160-144 0 0c9.6-8.8 16-21.6 16-35.2C1024 581.6 1017.6 569.6 1008 560.8zM16 215.20000000000005L16 215.20000000000005l160 144 0 0c8.8 8 20 12.8 32 12.8 26.4 0 48-21.6 48-48 0-14.4-6.4-26.4-16-35.2l0 0-67.2-60L400 228.79999999999995l0 0 208 0 0 0 243.2 0 0 0L976 228.79999999999995c26.4 0 48-21.6 48-48 0-26.4-21.6-48-48-48L672 132.79999999999995 560 132.79999999999995c0 0 0 0 0 0L464 132.79999999999995l0 0L172.8 132.79999999999995 240 72l0 0c9.6-8.8 16-21.6 16-35.2 0-26.4-21.6-48-48-48-12 0-23.2 4.8-32 12.8l0 0L16 144l0 0c-9.6 8.8-16 21.6-16 35.2C0 194.39999999999998 6.4 206.39999999999998 16 215.20000000000005z"  horiz-adv-x="1024" />

    
    <glyph glyph-name="-quanxian-account" unicode="&#58891;" d="M512 896a271.058824 271.058824 0 1 1 0-542.117647 271.058824 271.058824 0 0 1 0 542.117647z m301.176471-662.588235h-602.352942C127.698824 233.41176499999995 60.235294 159.98494100000005 60.235294 69.45129399999996v-142.757647c0-30.238118 22.467765-54.693647 50.176-54.693647h803.177412c27.708235 0 50.176 24.455529 50.176 54.693647v142.757647C963.764706 159.92470600000001 896.301176 233.41176499999995 813.176471 233.41176499999995z"  horiz-adv-x="1024" />

    
    <glyph glyph-name="-quanxian-journal" unicode="&#58895;" d="M940.926928-64.0616a63.359842 63.359842 0 0 0-19.199952-45.439886 65.471836 65.471836 0 0 0-46.271885-18.495954l-773.438066 6.015985C59.96913-121.98145499999998 32.0012-94.71752300000003 32.0012-53.75762599999996V763.84033C32.0012 804.8002280000001 59.96913 832.00016 102.017025 832.00016h139.96765v-95.359762c0-27.327932 27.96793-54.591864 63.039842-61.439846h49.023878a62.911843 62.911843 0 0 1 44.543889 17.791956 60.927848 60.927848 0 0 1 18.495953 43.64789V832.00016h139.96765v-95.359762c0-27.327932 27.96793-54.591864 63.103843-61.439846h48.959877a62.911843 62.911843 0 0 1 44.543889 17.791956 60.927848 60.927848 0 0 1 18.495954 43.64789V832.00016h139.96765c42.111895 0 70.079825-27.263932 70.079824-68.15983L940.926928-63.997600000000034zM172.09685 530.624913v-45.567886c0-7.679981 7.039982-15.231962 14.015965-15.231962h602.174494c6.911983 0 13.951965 7.615981 13.951965 15.231962V530.560914c0 7.615981-7.039982 15.167962-13.951965 15.167962h-602.238494c-7.039982 0-14.015965-7.551981-14.015965-15.167962h0.064z m0-203.071492v-48.383879c0-6.911983 15.423961-13.759966 30.911922-13.759966h555.838611c15.423961 0 30.911923 6.847983 30.911923 13.759966v48.383879c0 6.911983-15.487961 13.823965-30.911923 13.823966H203.008772c-15.487961 0-30.911923-6.911983-30.911922-13.823966zM355.90439 896c7.039982 0 7.039982 0 0-6.399984v-179.199552s0-6.399984-7.167982-6.399984h-49.535876s-7.167982 0-7.167982 6.399984V889.600016c0 6.399984 7.167982 6.399984 14.207964 6.399984h49.663876z m319.167202 0c7.039982 0 7.039982 0 7.039983-6.399984v-179.199552s0-6.399984-7.103983-6.399984h-49.599876s-7.039982 0-7.039982 6.399984V889.600016s0 6.399984 7.039982 6.399984h49.663876z"  horiz-adv-x="1024" />

    
    <glyph glyph-name="-quanxian-starts" unicode="&#58896;" d="M512.001182 896C795.963603 896 1024 667.963603 1024 384.001182S795.963603-127.99763700000005 512.001182-127.99763700000005A510.502207 510.502207 0 0 0 0.002363 384.001182C0.002363 667.963603 228.03876 896 512.001182 896z m0-93.105016A417.160883 417.160883 0 0 1 93.107379 384.001182 417.160883 417.160883 0 0 1 512.001182-34.89262099999996 417.160883 417.160883 0 0 1 930.894984 384.001182 417.160883 417.160883 0 0 1 512.001182 802.894984z m133.119692-193.299246c27.963012 0 46.631277-18.668265 46.631277-46.552508v-372.420064c0-27.884243-18.668265-46.473739-46.552508-46.473739-27.963012 0-46.552508 18.589496-46.552508 46.473739V563.04323c0 27.884243 18.589496 46.473739 46.473739 46.473739z m-283.568576 7.089214c27.963012 0 46.631277-18.589496 46.631277-46.473739v-372.420063c0-27.884243-18.668265-46.473739-46.552508-46.473739-27.963012 0-46.552508 18.589496-46.552508 46.473739V570.211213c0 27.884243 18.589496 46.473739 46.473739 46.473739z"  horiz-adv-x="1024" />

    
    <glyph glyph-name="-quanxian-manage" unicode="&#58908;" d="M603.136 106.43200000000002l225.28-167.68a37.12 37.12 0 0 0-44.416-59.328l-247.616 184.32-242.176-180.416a37.12 37.12 0 0 0-59.072 25.344 36.992 36.992 0 0 0 14.72 34.048l219.84 163.712H148.48A148.288 148.288 0 0 0 0 254.46400000000006v493.44A148.48 148.48 0 0 0 148.48 896l791.04 0.064A148.224 148.224 0 0 0 1088 747.968v-493.44a147.84 147.84 0 0 0-43.52-104.768 148.48 148.48 0 0 0-104.96-43.328H603.2z m81.92 368a37.76 37.76 0 0 1 55.104 0l80 83.52a41.856 41.856 0 0 1 10.56 39.552 39.872 39.872 0 0 1-27.84 29.056 37.888 37.888 0 0 1-37.888-11.136l-52.416-54.656L586.88 692.096a38.08 38.08 0 0 1-58.048-3.392L373.44 485.632l-115.84 120.96a37.824 37.824 0 0 1-54.208-1.024 41.984 41.984 0 0 1-0.896-56.576l146.624-153.088a38.08 38.08 0 0 1 58.048 3.392L562.56 602.3679999999999l122.496-127.872z"  horiz-adv-x="1088" />

    
    <glyph glyph-name="-quanxian-stopbeifen" unicode="&#58909;" d="M512.001182 896C795.963603 896 1024 667.963603 1024 384.001182S795.963603-127.99763700000005 512.001182-127.99763700000005A510.502207 510.502207 0 0 0 0.002363 384.001182C0.002363 667.963603 228.03876 896 512.001182 896z m0-93.105016A417.160883 417.160883 0 0 1 93.107379 384.001182 417.160883 417.160883 0 0 1 512.001182-34.89262099999996 417.160883 417.160883 0 0 1 930.894984 384.001182 417.160883 417.160883 0 0 1 512.001182 802.894984z m186.210031-372.341295c27.884243 0 46.473739-18.589496 46.473739-46.552507s-18.589496-46.473739-46.473739-46.473739H325.79115c-27.884243 0-46.473739 18.510727-46.473739 46.473739s18.589496 46.473739 46.473739 46.473738h372.420063z"  horiz-adv-x="1024" />

    
    <glyph glyph-name="-quanxian-branch" unicode="&#58910;" d="M955.676444 259.185778H828.302222V354.702222a63.715556 63.715556 0 0 1-63.715555 63.715556H541.752889V513.877333h95.516444a63.715556 63.715556 0 0 1 63.715556 63.715556V832.341333A63.715556 63.715556 0 0 1 637.212444 896H382.520889a63.715556 63.715556 0 0 1-63.715556-63.715556v-254.691555c0-35.157333 28.558222-63.715556 63.715556-63.715556h95.573333v-95.459555H255.089778a63.715556 63.715556 0 0 1-63.715556-63.715556v-95.516444H64.170667a63.715556 63.715556 0 0 1-63.715556-63.715556v-254.691555a63.715556 63.715556 0 0 1 63.715556-63.715556h254.748444a63.715556 63.715556 0 0 1 63.715556 63.715556v254.748444a63.715556 63.715556 0 0 1-63.715556 63.658667h-63.715555V354.702222h509.44v-95.516444h-63.658667a63.715556 63.715556 0 0 1-63.715556-63.715556v-254.691555a63.715556 63.715556 0 0 1 63.715556-63.715556H955.733333a63.715556 63.715556 0 0 1 63.715556 63.715556v254.748444a63.715556 63.715556 0 0 1-63.715556 63.658667zM382.520889 577.592889V832.341333h254.748444v-254.748444H382.520889z m-63.715556-382.065778v-254.748444H64.170667v254.748444h254.748444zM955.733333-59.22133299999996H700.871111v254.748444H955.733333v-254.748444zM52.679111 225.50755600000002h281.144889v-311.011556H52.679111v311.011556z m634.424889 0h278.641778v-311.011556h-278.641778v311.011556zM366.193778 854.926222h283.591111v-303.502222H366.193778V854.926222z"  horiz-adv-x="1024" />

    
    <glyph glyph-name="-quanxian-modify" unicode="&#58911;" d="M75.847126 327.082757c0 10.475252 4.331871 20.477936 12.050478 27.723976L656.71167 885.657854a37.884182 37.884182 0 0 0 52.770067-0.866374l227.462617-227.541378a37.962944 37.962944 0 0 0-1.023897-54.581577l-568.814065-530.851122a37.962944 37.962944 0 0 0-25.833705-10.238968H113.731309a37.884182 37.884182 0 0 0-37.884183 37.962944V327.082757z m75.847126-16.539872V137.42556100000002h174.613789l529.197135 493.833314L681.679 805.321335l-530.063509-494.620927zM0-128v75.847126h1061.702244V-128H0z"  horiz-adv-x="1102" />

    
    <glyph glyph-name="-quanxian-role" unicode="&#58912;" d="M157.094482 895.997591a34.334037 34.334037 0 0 1-23.070063-9.215979L39.937111 792.694304a32.888393 32.888393 0 0 1-9.215979-22.527947v-855.821045c0-17.88984 14.998553-32.888393 32.888394-32.888393h629.638048a33.67145 33.67145 0 0 1 23.612179 9.81833l36.984384 36.924148a33.67145 33.67145 0 0 1 9.81833 23.672415V657.0447409999999a34.334037 34.334037 0 0 1-9.276214 23.130299l-36.321797 36.924148a32.707688 32.707688 0 0 1-23.672415 9.81833h-550.549292l46.742478 46.742478a32.346277 32.346277 0 0 0 23.070063 9.81833l592.7139 1.144468c8.613627 0 17.287489-3.493639 23.612179-9.81833l36.984384-37.5265c6.324691-6.324691 9.215978-14.456437 9.215978-23.070063V28.611396000000013c0-17.88984 14.456437-32.888393 32.888394-32.888393h47.344829c17.88984 0 32.888393 14.456437 32.888394 32.888393V769.624241a34.032861 34.032861 0 0 1-9.81833 24.214531L886.542178 886.179261A34.032861 34.032861 0 0 1 862.327646 895.997591H157.094482z m42.164607-742.699429c37.466265 39.755201 87.10003 81.919807 124.084414 94.027073 13.854085 4.638107 29.997106 39.213084 22.467712 61.741031l-1.74682 3.493639c-1.144468 2.288936-2.288936 4.577872-4.035755 6.324691a125.469822 125.469822 0 0 0-26.503467 42.164606c0 0.542116-0.602352 0.542116-0.602352 1.144468-0.602352 1.144468-1.204703 2.288936-1.204703 2.831052-0.542116 1.204703-0.542116 2.349171-1.084232 4.095991-1.204703 2.831052-1.807055 5.722339-2.891288 8.613626-0.602352 1.204703-0.602352 2.891287-1.204703 4.035756-1.144468 5.782575-1.144468 9.276213-1.144468 9.276213h0.602352c0 2.891287-0.602352 5.180223-0.602352 8.071511 0 53.067169 42.766958 95.773892 95.773893 95.773892 53.127404 0 95.834127-42.706723 95.834127-95.773892 0-2.891287-0.602352-5.180223-0.602351-8.071511h0.602351s0-3.493639-1.144468-9.276213c-0.602352-1.144468-0.602352-2.891287-1.204703-4.035756a50.778233 50.778233 0 0 0-2.831052-8.613626c-0.602352-1.204703-0.602352-2.349171-1.204703-4.095991-0.542116-1.144468-0.542116-2.288936-1.084233-2.831052 0-0.602352 0-0.602352-0.602351-1.204703a123.602533 123.602533 0 0 0-24.816883-39.7552c-1.746819-2.349171-4.638107-5.782575-5.782575-8.131746l-1.686584-3.433404c-6.927043-21.925595 8.613627-56.621043 22.467712-61.741031 38.670968-13.251734 86.557914-54.271872 124.084414-94.087308v-27.105819a16.143021 16.143021 0 0 0-16.143021-16.203256h-372.253242a16.143021 16.143021 0 0 0-16.143021 16.203256l0.602352 26.503467z"  horiz-adv-x="1024" />

    
    <glyph glyph-name="-quanxian-menu" unicode="&#58919;" d="M388.16-128H42.88a43.008 43.008 0 0 0-42.88 42.88V260.096c0 23.616 19.328 42.88 42.88 42.88h345.28c23.552 0 42.88-19.264 42.88-42.88v-345.216c0-23.552-19.328-42.88-42.88-42.88z m564.992 0H608a43.008 43.008 0 0 0-42.88 42.88V260.096c0 23.616 19.264 42.88 42.88 42.88h345.216c23.616 0 42.88-19.264 42.88-42.88v-345.216c0-23.552-19.264-42.88-42.88-42.88zM388.16 436.992H42.88a43.008 43.008 0 0 0-42.88 42.88V825.088c0 23.616 19.328 42.88 42.88 42.88h345.28c23.552 0 42.88-19.264 42.88-42.88v-345.216c0-23.552-19.328-42.88-42.88-42.88z m623.424 184.96l-200.448-200.512a43.008 43.008 0 0 0-60.608 0L549.504 621.952a43.008 43.008 0 0 0 0 60.544L750.016 883.52c16.64 16.64 43.904 16.64 60.544 0l200.512-200.448a43.2 43.2 0 0 0 0.512-61.12z"  horiz-adv-x="1024" />

    
    <glyph glyph-name="-xuanzhongxingxing" unicode="&#58913;" d="M558.545455 19.269817999999987l-210.757819-115.060363a93.090909 93.090909 0 0 0-136.098909 98.862545l44.218182 236.078545L81.361455 404.014545a93.090909 93.090909 0 0 0 52.037818 160.023273l238.126545 30.813091L474.484364 811.752727a93.090909 93.090909 0 0 0 168.122181 0l102.958546-216.901818 238.126545-30.813091a93.090909 93.090909 0 0 0 52.037819-160.023273L861.090909 239.15054499999997l44.218182-236.078545a93.090909 93.090909 0 0 0-136.098909-98.862545L558.545455 19.269817999999987z"  horiz-adv-x="1117" />

    
    <glyph glyph-name="-xingxing" unicode="&#58914;" d="M558.545455 19.269817999999987l-210.757819-115.060363a93.090909 93.090909 0 0 0-136.098909 98.862545l44.218182 236.078545L81.361455 404.014545a93.090909 93.090909 0 0 0 52.037818 160.023273l238.126545 30.813091L474.484364 811.752727a93.090909 93.090909 0 0 0 168.122181 0l102.958546-216.901818 238.126545-30.813091a93.090909 93.090909 0 0 0 52.037819-160.023273L861.090909 239.15054499999997l44.218182-236.078545a93.090909 93.090909 0 0 0-136.098909-98.862545L558.545455 19.269817999999987z"  horiz-adv-x="1117" />

    
    <glyph glyph-name="daiban4" unicode="&#58915;" d="M725.101714 347.282286c-124.379429 0-225.792-101.412571-225.792-227.181715 0-125.184 100.827429-227.218286 225.792-227.218285 124.342857 0 225.755429 101.449143 225.755429 227.218285s-101.376 227.181714-225.755429 227.181715z m109.641143-294.217143h-148.553143v172.032h52.443429v-119.222857h96.694857v-52.809143h-0.585143zM459.227429 120.685714a266.605714 266.605714 0 0 0 101.412571 209.408 26.697143 26.697143 0 0 0-11.812571-2.962285H262.948571a26.258286 26.258286 0 0 0-25.965714 26.075428c0 14.262857 11.812571 26.112 25.965714 26.112h285.293715c14.153143 0 25.965714-11.849143 25.965714-26.112 0-7.094857-2.962286-13.019429-7.094857-17.773714a243.821714 243.821714 0 0 0 146.761143 48.64c68.388571 0 140.324571-21.357714 186.294857-65.243429V854.491429c0 23.113143-18.285714 41.508571-41.252572 41.508571H114.395429C91.428571 896 73.142857 877.604571 73.142857 854.491429v-894.537143c0-23.149714 18.285714-41.545143 41.252572-41.545143H552.96c-59.538286 46.848-93.732571 119.808-93.732571 202.276571zM262.948571 701.44h444.452572c14.153143 0 25.965714-11.885714 25.965714-26.112 0-14.262857-11.812571-26.112-25.965714-26.112H262.948571a26.258286 26.258286 0 0 0-25.965714 26.112c0 14.262857 11.812571 26.112 25.965714 26.112z m0-161.353143h444.452572c14.153143 0 25.965714-11.885714 25.965714-26.112 0-14.262857-11.812571-26.112-25.965714-26.112H262.948571a26.258286 26.258286 0 0 0-25.965714 26.112c0 14.262857 11.812571 26.112 25.965714 26.112z m304.164572-204.653714l-7.058286-5.339429a16.091429 16.091429 0 0 1 7.058286 5.339429z"  horiz-adv-x="1024" />

    
    <glyph glyph-name="xiazai" unicode="&#58916;" d="M1072.90819 733.086476h-457.728L555.446857 860.891429A57.685333 57.685333 0 0 1 502.735238 895.024762H59.245714A58.270476 58.270476 0 0 1 1.511619 836.217905v-837.680762c0-50.712381 40.374857-91.769905 90.112-91.769905h982.308571c49.737143 0 90.112 41.057524 90.112 91.769905V641.170286c0 24.527238-9.703619 48.030476-26.721523 65.243428a89.234286 89.234286 0 0 1-64.365715 26.575238V733.135238z m-491.178666-643.657143l-210.602667 269.165715h128.585143V479.329524h164.08381v-120.734476h127.609904l-209.67619-269.165715z"  horiz-adv-x="1170" />

    
    <glyph glyph-name="liucheng1" unicode="&#58917;" d="M964.906667 153.514667h-38.656v187.605333c0 43.178667-34.986667 78.165333-78.165334 78.165333h-270.122666a15.488 15.488 0 0 0-15.445334 15.445334V504.405333H622.933333a84.309333 84.309333 0 0 1 84.352 84.309334V811.349333A84.309333 84.309333 0 0 1 622.933333 895.658667H400.469333a84.309333 84.309333 0 0 1-84.352-84.309334v-222.634666c0-46.592 37.76-84.309333 84.352-84.309334h59.989334v-69.674666c0-8.533333-6.954667-15.445333-15.445334-15.445334H174.506667a80.213333 80.213333 0 0 1-80.213334-80.213333v-185.6h-37.461333c-31.146667 0-56.490667-25.173333-56.490667-56.448v-162.389333c0-31.146667 25.216-56.490667 56.490667-56.490667h162.389333c31.146667 0 56.448 25.258667 56.448 56.490667v162.517333c0 31.146667-25.216 56.448-56.448 56.448h-39.808v178.432h265.685334c8.533333 0 15.488-6.954667 15.488-15.445333v-163.2h-29.098667c-31.146667 0-56.490667-25.216-56.490667-56.490667v-162.389333c0-31.146667 25.216-56.448 56.490667-56.448h162.389333c31.146667 0 56.448 25.216 56.448 56.448v162.645333c0 31.146667-25.173333 56.448-56.448 56.448h-31.36v163.072c0 8.533333 6.912 15.445333 15.445334 15.445333h264.405333V153.6h-39.765333c-31.146667 0-56.448-25.173333-56.448-56.448v-162.389333c0-31.146667 25.173333-56.490667 56.448-56.490667h162.389333c31.146667 0 56.490667 25.216 56.490667 56.490667v162.389333a56.704 56.704 0 0 1-56.576 56.32z"  horiz-adv-x="1024" />

    
    <glyph glyph-name="-wenjianxiazaihouxuan" unicode="&#58897;" d="M691.9168 844.8a51.2 51.2 0 0 0 51.2-51.2l-0.0512-471.6032h78.0288a51.2 51.2 0 0 0 35.4304-88.2176l-309.0944-296.1408a51.2 51.2 0 0 0-70.8608 0l-309.0944 296.1408a51.2 51.2 0 0 0 35.4304 88.1664l77.9776 0.0512V793.6a51.2 51.2 0 0 0 51.2 51.2h359.8336z"  horiz-adv-x="1024" />

    
    <glyph glyph-name="-jixiaofendengji" unicode="&#58898;" d="M870.4 844.8a102.4 102.4 0 0 0 102.4-102.4v-716.8a102.4 102.4 0 0 0-102.4-102.4H204.8a102.4 102.4 0 0 0-102.4 102.4V742.4a102.4 102.4 0 0 0 102.4 102.4h665.6zM230.4 179.20000000000005a76.8 76.8 0 1 1 0-153.6 76.8 76.8 0 0 1 0 153.6zM563.2 435.2a153.6 153.6 0 0 1-153.6-153.6v-128a25.6 25.6 0 0 1 25.6-25.6h256a25.6 25.6 0 0 1 25.6 25.6V281.6a153.6 153.6 0 0 1-153.6 153.6z m0 204.8a102.4 102.4 0 1 1 0-204.8 102.4 102.4 0 0 1 0 204.8zM230.4 742.4a76.8 76.8 0 1 1 0-153.6 76.8 76.8 0 0 1 0 153.6zM51.2 691.2m25.6 0l153.6 0q25.6 0 25.6-25.6l0 0q0-25.6-25.6-25.6l-153.6 0q-25.6 0-25.6 25.6l0 0q0 25.6 25.6 25.6ZM51.2 128m25.6 0l153.6 0q25.6 0 25.6-25.6l0 0q0-25.6-25.6-25.6l-153.6 0q-25.6 0-25.6 25.6l0 0q0 25.6 25.6 25.6Z"  horiz-adv-x="1024" />

    
    <glyph glyph-name="-celue" unicode="&#58899;" d="M928.1024 595.456c-55.7568 54.1696-185.856 162.6112-247.808 216.832C655.5136 836.608 618.3424 844.8 584.2432 844.8H144.384c-52.6848 0-92.928-35.2256-92.928-81.3056v-758.9888c0-46.08 40.2432-81.3056 92.928-81.3056h724.8896c58.88 0 86.7328 24.3712 89.8048 75.8784V530.432c0 18.944-3.072 40.6528-30.976 65.024zM324.096 728.2176h198.2464c49.5616 0 86.7328-35.2768 86.7328-75.9296 0-43.3664-40.2432-75.8784-86.7328-75.8784H324.096c-49.5616 0-86.7328 32.512-86.7328 75.8784s40.2944 75.9296 86.7328 75.9296z m467.7632-623.4624c3.072-40.6528-37.1712-75.8784-86.7328-75.8784H302.3872c-49.5616 0-86.784 35.2256-86.784 75.8784v200.6016c0 43.3664 40.2944 75.8784 86.784 75.8784h402.688c49.5616 0 86.7328-35.2256 86.7328-75.8784v-200.6016zM762.4704 178.27840000000003c0-46.08-43.3664-81.3056-92.928-81.3056-52.6848 0-92.928 37.9392-92.928 81.3056 0 43.3664 43.3664 81.3568 92.928 81.3568 49.5616 2.7136 92.928-35.2768 92.928-81.3568"  horiz-adv-x="1024" />

    
    <glyph glyph-name="-guanli" unicode="&#58900;" d="M241.987368 896a242.472421 242.472421 0 0 0 241.987369-242.526316V410.947368H241.987368A242.472421 242.472421 0 0 0 0 653.473684 242.472421 242.472421 0 0 0 241.987368 896z m0-107.789474v-0.053894A134.682947 134.682947 0 0 1 110.645895 653.473684 134.682947 134.682947 0 0 1 241.987368 518.736842h134.521264V653.473684A134.844632 134.844632 0 0 1 241.987368 788.210526zM782.012632 410.947368h-241.987369V653.473684A242.472421 242.472421 0 0 0 782.012632 896 242.472421 242.472421 0 0 0 1024 653.473684 242.472421 242.472421 0 0 0 782.012632 410.947368zM241.987368-128A242.472421 242.472421 0 0 0 0 114.741895a242.472421 242.472421 0 0 0 241.987368 242.364631h241.987369v-242.526315A242.472421 242.472421 0 0 0 241.987368-128v0.053895V-128zM782.012632-128a242.472421 242.472421 0 0 0-241.987369 242.526316V357.052632h241.987369A242.472421 242.472421 0 0 0 1024 114.52631599999995a242.472421 242.472421 0 0 0-241.987368-242.526316v0.053895V-128z"  horiz-adv-x="1024" />

    
    <glyph glyph-name="-tongji" unicode="&#58901;" d="M560.128 408.2176V844.8A461.7728 461.7728 0 0 0 972.8 408.2176m-5.12-97.28c-38.4-236.032-250.2656-403.712-488.448-386.56-238.08 17.2544-423.7312 213.6064-427.9808 452.7616C47.104 616.2432 225.6384 819.2 463.0016 844.8v-535.0912"  horiz-adv-x="1024" />

    
    <glyph glyph-name="-mingxi" unicode="&#58902;" d="M800.768 844.7488C892.416 847.36 969.216 779.2128 972.8 691.968v-714.2912c0-7.3216-3.072-14.336-8.4992-19.5584a35.5328 35.5328 0 0 0-46.2848-2.2528l-64.512 51.4048a34.7136 34.7136 0 0 1-21.6576 7.5264 36.2496 36.2496 0 0 1-22.528-7.8336l-94.72-75.9296a35.0208 35.0208 0 0 0-22.528-7.8336 33.6896 33.6896 0 0 0-18.432 5.3248l-144.4864 88.2176a30.3104 30.3104 0 0 1-17.3056 5.0176 30.3104 30.3104 0 0 1-16.9984-5.0176l-144.4352-88.2176a35.9424 35.9424 0 0 0-41.0112 2.56v-0.0512l-94.72 78.7456a35.9424 35.9424 0 0 1-44.544 0.256L105.984-41.3184a35.9424 35.9424 0 0 0-21.9648-7.5776 31.4368 31.4368 0 0 0-32.8192 27.9552V691.968C54.8352 779.264 131.584 847.4112 223.232 844.8z m-85.248-479.232H299.1104c-21.6576-2.56-37.12-21.1968-34.8672-41.8816-2.2528-20.6336 13.2096-39.2704 34.8672-41.8816h416.4096c21.6064 2.6112 37.12 21.248 34.8672 41.8816 2.2528 20.6848-13.2608 39.2704-34.8672 41.8816z m0 212.224H299.1104c-21.6576-2.56-37.12-21.1968-34.8672-41.8816-2.2528-20.6336 13.2096-39.2704 34.8672-41.8816h416.4096c21.504 2.7648 36.9664 21.248 34.8672 41.8816 2.2528 20.6848-13.2608 39.2704-34.8672 41.8816z"  horiz-adv-x="1024" />

    
    <glyph glyph-name="-guize" unicode="&#58903;" d="M844.8 793.6a25.6 25.6 0 0 0 25.6-25.6v-819.2a25.6 25.6 0 0 0-25.6-25.6H179.2a25.6 25.6 0 0 0-25.6 25.6v819.2A25.6 25.6 0 0 0 179.2 793.6H307.2v-76.8a25.6 25.6 0 0 1 20.992-25.1904L332.8 691.2h358.4a25.6 25.6 0 0 1 25.6 25.6V793.6h128z m-307.2-563.2h-204.8a25.6 25.6 0 0 1-4.608-50.7904L332.8 179.20000000000005h204.8a25.6 25.6 0 1 1 0 51.2z m153.6 153.6h-358.4a25.6 25.6 0 0 1-4.608-50.7904L332.8 332.79999999999995h358.4a25.6 25.6 0 1 1 0 51.2z m0 153.6h-358.4a25.6 25.6 0 0 1-4.608-50.7904L332.8 486.4h358.4a25.6 25.6 0 1 1 0 51.2zM358.4 844.8m25.6 0l256 0q25.6 0 25.6-25.6l0-51.2q0-25.6-25.6-25.6l-256 0q-25.6 0-25.6 25.6l0 51.2q0 25.6 25.6 25.6Z"  horiz-adv-x="1024" />

    
    <glyph glyph-name="-pingjunzhi" unicode="&#58904;" d="M766.6176 449.8432h64.3072c42.9056 0 64.3072-21.9648 64.3072-65.8432v-394.9568c0-43.8784-21.4016-65.8432-64.3072-65.8432h-64.3072c-42.8544 0-64.256 21.9648-64.256 65.8432V384c0 43.8784 21.4016 65.8432 64.256 65.8432zM477.2864 351.0784h64.3072c42.8544 0 64.3072-21.9136 64.3072-65.8432v-296.192c0-43.8784-21.4528-65.8432-64.3072-65.8432H477.2864c-42.8544 0-64.3072 21.9648-64.3072 65.8432V285.18399999999997c0 43.9296 21.4528 65.8432 64.3072 65.8432zM187.904 219.44320000000005h64.3072c42.9056 0 64.3072-21.9648 64.3072-65.8432v-164.5568c0-43.8784-21.4016-65.8432-64.3072-65.8432H187.904c-42.8544 0-64.256 21.9648-64.256 65.8432V153.60000000000002c0 43.8784 21.4016 65.8432 64.256 65.8432zM869.9904 575.8976a48.7936 48.7936 0 0 0-48.2304 49.3568v120.832h-117.9648a48.7936 48.7936 0 0 0-48.2304 49.3568c0 27.2384 21.6064 49.3568 48.2304 49.3568h166.1952c26.624 0 48.2304-22.1184 48.2304-49.3568v-170.1888a48.7936 48.7936 0 0 0-48.2304-49.3568zM150.4768 427.6224a48.2304 48.2304 0 0 0-44.544 30.976 50.176 50.176 0 0 0 11.264 53.9136L221.3376 614.4a189.6448 189.6448 0 0 0 261.5808 8.9088 96.512 96.512 0 0 1 128.6144 1.1264l179.2 154.5216a47.36 47.36 0 0 0 48.128 9.728c16.5888-5.9392 28.672-20.6336 31.5904-38.4a49.9712 49.9712 0 0 0-17.664-46.848l-178.7392-153.3952a191.8976 191.8976 0 0 0-253.696-1.4848 95.9488 95.9488 0 0 1-131.9424-4.7616L183.9104 441.344a47.616 47.616 0 0 0-33.4336-13.6704z"  horiz-adv-x="1024" />

    
    <glyph glyph-name="-dengjijixiaofen" unicode="&#58905;" d="M397.8752 84.32640000000004l-228.1984 116.48a20.1216 20.1216 0 0 1-19.456-4.4544l-97.1264-140.6976c-4.9152-8.7552 0-19.8144 12.1344-19.8144l131.072-6.5536c4.9152 0 7.2704-2.2016 9.7792-4.352l80.0768-96.768c7.3216-6.656 19.456-6.656 24.3712 0l92.2624 138.496c4.864 6.656 2.4064 13.2096-4.9152 17.664z m573.0304-26.5216l-97.1264 140.8c-4.864 6.656-12.1856 8.7552-19.3536 4.352l-228.1984-116.5824c-7.3216-4.4032-9.7792-11.008-4.9152-17.6128l92.2624-138.5472c4.8128-6.6048 16.9472-6.6048 24.2688 0l79.9744 96.768c2.5088 2.304 4.864 4.4544 9.728 4.4544l131.2256 6.6048c12.1344 0 17.0496 11.008 12.1344 19.7632z m-80.1792 248.6272V620.9024c0 24.2176-14.5408 46.2848-36.352 57.1904l-308.3776 158.4128a84.2752 84.2752 0 0 1-72.8064 0l-305.92-156.16c-21.8112-11.008-36.352-32.9728-36.352-54.9888v-314.5728c0-22.0672 14.5408-44.032 36.352-55.04l308.3264-158.3616c21.8624-11.008 50.944-11.008 72.8064 0l305.92 154.0096c21.8624 11.008 36.4032 32.9728 36.4032 55.04zM708.608 543.8976l-179.6608-235.3152a31.1296 31.1296 0 0 0-24.32-11.008c-9.728 0-19.456 4.4544-24.2688 11.008L308.0192 543.8976c-9.6768 11.0592-4.864 28.672 7.2704 35.1744 12.1856 6.6048 31.5392 4.4032 38.8096-6.6048l148.1216-202.4448 155.392 204.5952c9.728 11.0592 26.7264 15.36 38.8096 6.656 19.5584-10.9568 21.9648-26.3168 12.1856-37.376z"  horiz-adv-x="1024" />

    
    <glyph glyph-name="-dengji" unicode="&#58906;" d="M97.4336 406.2208L439.1936 536.576a204.8 204.8 0 0 0 145.92 0l341.7088-130.304a51.2 51.2 0 0 0 0-95.6928l-341.76-130.2016a204.8 204.8 0 0 0-145.8176 0l-341.8112 130.2016a51.2 51.2 0 0 0 0 95.744zM97.4336 610.2528l341.76 130.304a204.8 204.8 0 0 0 145.92 0l341.7088-130.304a51.2 51.2 0 0 0 0-95.6928l-341.76-130.2016a204.8 204.8 0 0 0-145.8176 0L97.4336 514.56a51.2 51.2 0 0 0 0 95.6928z"  horiz-adv-x="1024" />

    
    <glyph glyph-name="-jixiaopaiming" unicode="&#58907;" d="M433.5104 844.8v-52.9408h58.88v-176.1792h59.6992V844.8H433.5104z m314.88-201.8304v-52.9408h98.9696v-34.7648h-98.9696v-141.4656H906.24V466.7392h-98.1504v35.584H906.24V642.9696h-157.8496z m-629.76-200.192v-52.9408h98.0992v-35.584H118.6304v-52.9408h98.0992v-35.584H118.6304v-52.9408h156.9792V442.7776H118.6304z m228.6592 95.9488v-404.48H0V-128h1024v453.3248h-347.2896V538.7264H347.2896z"  horiz-adv-x="1024" />

    
    <glyph glyph-name="-zijinjiesuan" unicode="&#58923;" d="M409.6 33.27999999999997h30.72v-10.24c-2.56-7.68-2.56-12.8-2.56-20.48v-46.08H409.6c-181.76 0-327.68 84.48-327.68 192v76.8c0-107.52 145.92-192 327.68-192z m0 133.12h30.72v-10.24c-2.56-7.68-2.56-12.8-2.56-20.48v-46.08H409.6c-181.76 0-327.68 84.48-327.68 192v76.8c0-107.52 145.92-192 327.68-192z m0 266.24c181.76 0 327.68 84.48 327.68 189.44v-74.24c0-46.08-28.16-87.04-71.68-120.32-46.08-12.8-87.04-30.72-120.32-53.76-40.96-10.24-87.04-17.92-138.24-17.92-181.76 0-327.68 84.48-327.68 192v76.8c2.56-107.52 148.48-192 330.24-192z m0-133.12c23.04 0 43.52 2.56 64 2.56-17.92-23.04-28.16-51.2-33.28-79.36H409.6c-181.76 0-327.68 84.48-327.68 192v76.8c0-107.52 145.92-192 327.68-192z m0 570.88c181.76 0 327.68-84.48 327.68-192s-148.48-192-327.68-192c-181.76 0-327.68 84.48-327.68 192s145.92 192 327.68 192z m499.2-688.64h40.96c12.8 0 23.04-12.8 23.04-25.6v-46.08c0-12.8-10.24-25.6-23.04-25.6H908.8c-5.12-7.68-10.24-25.6-15.36-38.4l28.16-28.16c10.24-10.24 10.24-23.04 0-33.28l-33.28-35.84c-10.24-10.24-23.04-10.24-33.28 0l-28.16 28.16c-12.8-7.68-30.72-12.8-38.4-15.36v-40.96c0-12.8-12.8-23.04-25.6-23.04H716.8c-12.8 0-25.6 10.24-25.6 23.04V-38.39999999999998c-7.68 5.12-25.6 10.24-38.4 15.36l-28.16-28.16c-10.24-10.24-23.04-10.24-33.28 0l-33.28 33.28c-10.24 10.24-10.24 23.04 0 33.28l28.16 28.16c-7.68 12.8-12.8 30.72-15.36 38.4h-40.96c-12.8 0-23.04 12.8-23.04 25.6V153.60000000000002c0 12.8 10.24 25.6 23.04 25.6h40.96c5.12 7.68 10.24 25.6 15.36 38.4l-28.16 28.16c-10.24 10.24-10.24 23.04 0 33.28l33.28 33.28c10.24 10.24 23.04 10.24 33.28 0l28.16-28.16c12.8 7.68 30.72 12.8 38.4 15.36v40.96c0 12.8 12.8 23.04 25.6 23.04h46.08c12.8 0 25.6-10.24 25.6-23.04v-40.96c7.68-5.12 25.6-10.24 38.4-15.36l28.16 28.16c10.24 10.24 23.04 10.24 33.28 0l33.28-30.72c10.24-10.24 10.24-23.04 0-33.28l-28.16-28.16c5.12-12.8 10.24-28.16 15.36-38.4z m-273.92-48.64c0-58.88 46.08-104.96 104.96-104.96S844.8 76.79999999999995 844.8 133.12c0 58.88-46.08 104.96-104.96 104.96S634.88 192 634.88 133.12z"  horiz-adv-x="1024" />

    
    <glyph glyph-name="-xiazai" unicode="&#58922;" d="M835.797333 618.3679999999999h-302.378666l-39.466667 84.48A38.101333 38.101333 0 0 1 459.093333 725.333333H166.144A38.485333 38.485333 0 0 1 128 686.506667V133.12c0-33.493333 26.666667-60.629333 59.52-60.629333h648.96c32.853333 0 59.52 27.136 59.52 60.629333v424.533333c0 16.213333-6.4 31.744-17.664 43.093334a58.965333 58.965333 0 0 1-42.538667 17.578666z m-324.48-425.216l-139.136 177.834667h84.949334v79.744h108.373333v-79.744h84.309333l-138.496-177.834667z"  horiz-adv-x="1024" />

    
    <glyph glyph-name="-yufu" unicode="&#58921;" d="M853.333333 725.333333v-221.013333l-18.56-5.888c-15.786667-4.992-30.634667-18.346667-41.642666-37.546667-12.330667-21.418667-19.072-48.725333-19.072-76.885333 0-28.16 6.741333-55.381333 19.072-76.885333 11.093333-19.242667 25.856-32.554667 41.642666-37.546667l18.56-5.845333V42.66666699999996H170.666667v221.141333l17.834666 6.186667c15.530667 5.418667 29.994667 19.029333 40.746667 38.101333 11.989333 21.205333 18.56 48.213333 18.56 75.818667s-6.570667 54.613333-18.56 75.818666c-10.752 19.072-25.173333 32.64-40.746667 38.058667L170.666667 504.021333V725.333333h682.666666z m-254.634666-117.717333L512 490.922667 425.301333 607.616l-42.752-32.213333 63.445334-85.461334H370.773333v-52.48l105.898667 0.042667v-71.637333H370.773333v-52.48h105.898667v-129.493334h58.88l-0.042667 129.493334h105.941334v52.48h-105.941334v71.637333h105.941334V489.898667h-63.488l63.488 85.461333-42.752 32.213333z"  horiz-adv-x="1024" />

    
    <glyph glyph-name="-jilu" unicode="&#58920;" d="M768 725.333333a85.333333 85.333333 0 0 0 85.333333-85.333333v-597.333333a85.333333 85.333333 0 0 0-85.333333-85.333334H256a85.333333 85.333333 0 0 0-85.333333 85.333334V640a85.333333 85.333333 0 0 0 85.333333 85.333333h42.666667v-42.666666a42.666667 42.666667 0 0 1 42.666666-42.666667h341.333334a42.666667 42.666667 0 0 1 42.666666 42.666667V725.333333h42.666667z m-117.333333-554.666666h-277.333334a32 32 0 0 1-4.352-63.701334l4.352-0.298666h277.333334a32 32 0 1 1 0 64z m0 170.666666h-277.333334a32 32 0 0 1-4.352-63.701333l4.352-0.298667h277.333334a32 32 0 1 1 0 64z m0 170.666667h-277.333334a32 32 0 0 1-4.352-63.701333l4.352-0.298667h277.333334a32 32 0 1 1 0 64zM341.333333 768m42.666667 0l256 0q42.666667 0 42.666667-42.666667l0 0q0-42.666667-42.666667-42.666666l-256 0q-42.666667 0-42.666667 42.666666l0 0q0 42.666667 42.666667 42.666667Z"  horiz-adv-x="1024" />

    
    <glyph glyph-name="-jiesuan" unicode="&#58918;" d="M682.666667 810.666667a85.333333 85.333333 0 0 0 85.333333-85.333334v-331.050666a110.122667 110.122667 0 0 0-26.026667 21.674666c-5.077333 7.509333-14.250667 10.709333-22.357333 10.709334a35.029333 35.029333 0 0 1-11.221333-2.133334h-1.024l-61.056-35.285333h-1.024c-9.173333-8.533333-13.226667-24.576-8.149334-36.352 0 0 5.12-12.8 5.12-24.576 0-35.285333-27.52-65.237333-61.141333-65.237333h-0.981333c-9.173333 0-17.322667-9.6-20.394667-23.509334 0-1.066667-5.077333-27.776-5.077333-48.128 0-21.333333 5.12-48.085333 5.12-49.152 2.005333-13.909333 10.154667-23.509333 20.352-23.509333h2.005333c33.621333 0 61.098667-28.885333 61.098667-65.237333 0-11.776-5.12-24.576-5.12-24.576a27.648 27.648 0 0 1 8.192-34.218667h0.981333l57.045333-34.218667h0.981334c-7.082667-2.133333-14.72-3.2-22.656-3.2H170.666667a85.333333 85.333333 0 0 0-85.333334 85.333334V725.333333a85.333333 85.333333 0 0 0 85.333334 85.333334h512z m-256-341.333334H256a42.666667 42.666667 0 0 1-4.992-85.034666L256 384h170.666667a42.666667 42.666667 0 0 1 0 85.333333z m85.333333 213.333334H256a42.666667 42.666667 0 0 1-4.992-85.034667L256 597.333333h256a42.666667 42.666667 0 0 1 0 85.333334zM717.269333 341.33333300000004c5.973333 0 12.586667-2.261333 16.298667-7.552 5.205333-5.973333 21.461333-20.309333 34.816-20.309333 13.312 0 29.610667 14.293333 34.773333 19.584a20.010667 20.010667 0 0 0 15.573334 6.784c2.986667 0 5.930667-0.768 8.106666-1.536h0.768l42.922667-24.106667h0.768a20.096 20.096 0 0 0 5.930667-24.832s-3.712-9.045333-3.712-17.322666c0-25.6 19.968-45.952 44.416-45.952h1.493333c7.381333 0 13.312-6.784 14.805333-16.554667 0-0.768 3.712-19.626667 4.437334-33.152 0-15.061333-3.712-33.92-3.712-34.645333-2.218667-10.538667-8.106667-16.597333-14.805334-16.597334h-1.493333c-24.405333 0-44.373333-21.077333-44.373333-45.952 0-8.277333 3.669333-17.322667 3.669333-17.322666a21.333333 21.333333 0 0 0-6.656-24.832h-0.768l-42.922667-24.874667h-0.725333a26.197333 26.197333 0 0 0-8.149333-1.493333 20.48 20.48 0 0 0-16.298667 6.784c-5.205333 6.016-21.461333 21.845333-35.541333 21.845333-13.312 0-30.378667-15.786667-35.541334-21.077333a22.784 22.784 0 0 0-16.298666-6.826667c-2.986667 0-5.930667 0-8.106667 1.536h-0.768l-41.472 24.106667h-0.725333a19.072 19.072 0 0 0-5.930667 24.106666s3.712 9.045333 3.712 17.322667c0 25.6-20.010667 45.952-44.416 45.952h-1.493333c-7.424 0-13.354667 6.784-14.805334 16.554667 0 0.768-3.712 19.626667-3.712 34.645333 0 14.336 3.712 33.152 3.712 33.92 2.218667 9.813333 8.106667 16.554667 14.805334 16.554667h0.725333c24.448 0 44.416 21.077333 44.416 45.952 0 8.277333-3.669333 17.322667-3.669333 17.322666-3.712 8.277333-0.768 19.584 5.888 25.6h0.768l44.416 24.874667h0.725333a26.197333 26.197333 0 0 0 8.149333 1.493333z m50.346667-105.472c-32.554667 0-59.221333-27.093333-59.221333-60.245333 0-33.152 26.666667-60.245333 59.221333-60.245333 32.597333 0 59.264 27.093333 59.264 60.245333 0 33.152-26.666667 60.245333-59.264 60.245333z"  horiz-adv-x="1024" />

    
    <glyph glyph-name="-gongsi" unicode="&#58894;" d="M575.146667 651.52a32.896 32.896 0 0 1-26.453334 4.224L160.426667 505.472c-7.594667-3.413333-14.506667-11.946667-14.506667-20.394667v-462.677333h-29.866667c-17.066667 0-30.677333-13.653333-30.677333-30.592 0-16.938667 13.653333-30.592 30.677333-30.592h570.88a15.232 15.232 0 0 1 15.36 15.232l-0.042666 561.322667c0 8.533333-5.12 19.498667-11.946667 24.618666l-115.2 89.088z m-82.773334-453.461333c0-8.533333-6.826667-16.938667-14.506666-18.645334l-218.325334-52.650666c-8.533333-1.706667-14.506667 3.413333-14.506666 11.818666v22.101334c0 8.533333 6.869333 17.066667 14.506666 18.645333l218.368 52.736c8.533333 1.706667 14.506667-3.413333 14.506667-11.818667v-22.186666z m0 104.448c0-8.405333-6.826667-16.938667-14.506666-18.645334L259.584 231.253333c-8.533333-1.706667-14.506667 3.413333-14.506667 11.946667v22.058667c0 8.533333 6.869333 16.938667 14.506667 18.645333l218.368 52.650667c8.533333 1.706667 14.506667-3.413333 14.506667-11.818667v-22.186667z m0 105.301333c0-8.533333-6.826667-16.938667-14.506666-18.645333l-218.325334-52.650667c-8.533333-1.706667-14.506667 3.413333-14.506666 11.946667v22.058666c0 8.533333 6.869333 16.938667 14.506666 18.645334l218.368 51.797333c8.533333 1.706667 14.506667-3.413333 14.506667-11.818667v-21.333333z m415.530667-387.114667c-2.56 0-5.12 0-7.68-0.853333-1.749333 0.853333-3.456 0.853333-6.016 0.853333h-55.466667c-8.448 0-15.317333 6.826667-15.317333 14.421334V695.594667c0 8.533333-5.12 18.688-11.989333 23.765333l-116.864 84.949333a32.554667 32.554667 0 0 1-26.453334 4.266667L311.466667 712.661333c-7.68-2.56-14.464-11.093333-14.464-19.498666v-69.632c0-16.085333 13.696-29.738667 30.762666-29.738667a30.293333 30.293333 0 0 1 30.677334 29.738667v30.592c1.706667 6.826667 6.826667 14.421333 14.506666 16.128l284.074667 72.96c7.68 2.56 19.626667 0.853333 26.453333-4.266667l67.413334-48.341333c6.869333-5.12 12.032-15.274667 12.032-23.765334V-23.46666700000003c0-8.533333 6.826667-14.506667 15.36-14.506666h116.821333c1.706667 0 3.413333 0 5.12 0.853333 2.56-0.853333 5.162667-0.853333 7.722667-0.853333 17.066667 0 30.677333 13.653333 30.677333 29.738666-0.085333 15.274667-13.696 28.885333-30.762667 28.885334z"  horiz-adv-x="1024" />

    
    <glyph glyph-name="-tixian" unicode="&#58892;" d="M853.333333 814.08a85.333333 85.333333 0 0 0 85.333334-85.333333v-116.053334a85.333333 85.333333 0 0 0-85.333334-85.333333V648.533333a42.666667 42.666667 0 0 1-42.666666 42.666667H213.333333a42.666667 42.666667 0 0 1-42.666666-42.666667v-121.173333a85.333333 85.333333 0 0 0-85.333334 85.333333V728.746667a85.333333 85.333333 0 0 0 85.333334 85.333333h682.666666zM768 650.24a42.666667 42.666667 0 0 0 42.666667-42.666667v-597.333333a42.666667 42.666667 0 0 0-42.666667-42.666667H256a42.666667 42.666667 0 0 0-42.666667 42.666667v597.333333a42.666667 42.666667 0 0 0 42.666667 42.666667h512z m-316.885333-134.229333H389.162667l91.52-164.736H418.730667v-29.098667h78.378666l0.469334-0.469333v-40.362667H418.730667v-29.098667h78.848v-71.338666h54.442666v71.338666h79.317334v29.098667h-79.317334v40.362667l0.469334 0.469333h78.848v29.098667h-62.421334l91.52 164.736h-61.952L524.8 371.925333l-73.685333 144.085334z"  horiz-adv-x="1024" />

    
    <glyph glyph-name="-manage" unicode="&#58893;" d="M874.47071645 694.68918518a103.56306132 103.56306132 0 0 0 103.56306133-103.56306132v-517.81530904a103.56306132 103.56306132 0 0 0-103.56306133-103.56306133H149.52928355a103.56306132 103.56306132 0 0 0-103.56306133 103.56306133V591.12612386a103.56306132 103.56306132 0 0 0 103.56306133 103.56306132h724.9414329z m-325.49870342-103.56306132h-73.94402606l-21.33399113-63.95019142c-13.25607231-3.98717747-26.09789155-9.32067555-38.31833243-15.89692917L355.10196148 541.4158542299999 302.80261571 489.11650725l30.18863168-60.27370193c-6.52447289-12.06509629-11.90975169-24.90691675-15.84514844-38.31833243L253.09234608 369.19048177v-73.94402608l63.95019022-21.33398991c3.98717747-13.25607231 9.32067555-26.09789155 15.89693038-38.31833364L302.80261571 175.32043022000005l52.3511277-52.29934577 60.27370193 30.18863289c12.22044089-6.57625483 25.06226134-11.90975169 38.31833244-15.84514844L475.02798697 73.31081482000002h73.94402606l21.33399113 63.9501902c13.25607231 3.98717747 26.09789155 9.32067555 38.31833243 15.89693039l60.32548386-30.1886329 52.29934577 52.35112771-30.1886329 60.27370192c6.57625483 12.22044089 11.90975169 25.06226134 15.84514845 38.31833364L770.90765392 295.24645568999995v73.94402608l-63.95019022 21.33399112a200.60165098 200.60165098 0 0 1-15.89693038 38.31833243l30.1886329 60.32548386-52.3511277 52.29934577-60.27370193-30.18863168a197.18406994 197.18406994 0 0 1-38.31833243 15.84514844L548.97201303 591.12612386zM512 424.70028325a92.48181453 92.48181453 0 1 0 0-184.96362784 92.48181453 92.48181453 0 0 0 0 184.96362784zM149.52928355 850.03377778m38.83614814 0l647.26913662 0q38.83614815 0 38.83614814-38.83614815l0 0q0-38.83614815-38.83614814-38.83614815l-647.26913662 0q-38.83614815 0-38.83614814 38.83614815l0 0q0 38.83614815 38.83614814 38.83614815Z"  horiz-adv-x="1024" />

    
    <glyph glyph-name="-date" unicode="&#58890;" d="M292.571429 896v-73.142857h438.857142V896h73.142858v-73.142857h219.428571v-950.857143H0V822.857143h219.428571V896h73.142858z m658.285714-365.714286H73.069714L73.142857-54.85714299999995h877.714286V530.285714z m-585.142857-365.714285v-73.142858H219.428571v73.142858h146.285715z m219.428571 0v-73.142858H438.857143v73.142858h146.285714z m219.428572 0v-73.142858H658.285714v73.142858h146.285715zM365.714286 384v-73.142857H219.428571V384h146.285715z m219.428571 0v-73.142857H438.857143V384h146.285714z m219.428572 0v-73.142857H658.285714V384h146.285715zM219.428571 749.714286H73.142857L73.069714 603.4285709999999H950.857143V749.714286h-146.285714v-73.142857h-73.142858V749.714286H292.571429v-73.142857H219.428571V749.714286z"  horiz-adv-x="1024" />

    
    <glyph glyph-name="-suanfa" unicode="&#58889;" d="M444.532701 383.978383L116.07049 538.709456a57.341515 57.341515 0 0 1-56.658878 0c-19.056952-11.206625-30.718669-31.685738-30.889328-53.92833v-394.791781a62.575066 62.575066 0 0 1 33.56299-56.260673l329.144848-154.958619c8.248531-4.437141 17.464132-6.655712 26.793506-6.769484 10.353329 0.398205 20.422226 3.413185 29.296508 8.874282 18.77252 11.491058 30.37735 31.856397 30.604896 53.92833V330.10694A63.997227 63.997227 0 0 1 444.532701 383.978383z m491.21427 256.728431a60.982246 60.982246 0 0 1-30.718669 80.437403L558.646868 885.545982a109.677025 109.677025 0 0 1-93.464395 0l-346.210775-164.401765a60.982246 60.982246 0 0 1 0-111.269845l364.300658-171.967659c8.874282-4.664687 18.715633-7.281462 28.78453-7.509008 9.955124 0.341319 19.796475 2.958094 28.784531 7.509008l364.300658 171.967659c13.538969 6.086847 24.461162 17.1797 30.604896 30.832442z m59.730745-550.660583V484.496694a63.31459 63.31459 0 0 1-30.832442 53.92833 56.886424 56.886424 0 0 1-55.578036 1.308388L578.32957 383.978383a63.257703 63.257703 0 0 1-32.197716-53.871443v-396.441488c0.227546-22.071932 11.77549-42.437272 30.604896-53.871443 8.988055-5.119778 19.056952-7.79344 29.296509-7.79344a55.179831 55.179831 0 0 1 26.793505 6.826371l330.510123 154.901732c20.251567 11.263512 32.652807 32.994126 32.197715 56.317559z m-244.32719-27.19171l-15.359335-23.323434-28.898303 13.823401-29.012076-43.916319-15.359335 7.395235 28.841417 43.802546-28.898303 13.823401 15.359334 23.323434 28.898304-13.823401 28.898303 43.802546 15.359334-7.395235-28.841416-43.802546 29.012076-13.709628z m0 207.407901l-40.844453-21.218636v-40.844452l-21.7875-11.377285v40.844452l-40.787566-21.218636v21.730614l40.787566 21.218636v40.844452l21.7875 11.377285v-40.901339l40.844453 21.218636v-21.673727z m147.677156-143.012469l-82.030223-43.688774v21.730614l82.030223 43.802546v-21.844386z m0 51.709759l-82.030223-43.802547v21.844387l82.030223 43.802546v-21.844386z m0 164.060446l-82.030223-43.631887v21.673727l82.030223 43.802547v-21.844387zM898.827682 430.397705l-251.096675-118.835739-43.176795-57.341516V-48.13089200000002l336.483196 131.692071v215.827092z"  horiz-adv-x="1024" />

    
    <glyph glyph-name="-index" unicode="&#58883;" d="M51.2 793.6m102.4 0l204.8 0q102.4 0 102.4-102.4l0-204.8q0-102.4-102.4-102.4l-204.8 0q-102.4 0-102.4 102.4l0 204.8q0 102.4 102.4 102.4ZM51.2 332.79999999999995m102.4 0l204.8 0q102.4 0 102.4-102.4l0-204.8q0-102.4-102.4-102.4l-204.8 0q-102.4 0-102.4 102.4l0 204.8q0 102.4 102.4 102.4ZM512 128m51.2 0l0 0q51.2 0 51.2-51.2l0-102.4q0-51.2-51.2-51.2l0 0q-51.2 0-51.2 51.2l0 102.4q0 51.2 51.2 51.2ZM665.6 281.6m51.2 0l0 0q51.2 0 51.2-51.2l0-256q0-51.2-51.2-51.2l0 0q-51.2 0-51.2 51.2l0 256q0 51.2 51.2 51.2ZM819.2 230.39999999999998m51.2 0l0 0q51.2 0 51.2-51.2l0-204.8q0-51.2-51.2-51.2l0 0q-51.2 0-51.2 51.2l0 204.8q0 51.2 51.2 51.2ZM512 793.6m102.4 0l204.8 0q102.4 0 102.4-102.4l0-204.8q0-102.4-102.4-102.4l-204.8 0q-102.4 0-102.4 102.4l0 204.8q0 102.4 102.4 102.4Z"  horiz-adv-x="1024" />

    
    <glyph glyph-name="-rule" unicode="&#58885;" d="M762.51327-127.43142699999999a225.154914 225.154914 0 0 0-70.844197 34.796669l0.966574 46.850416a41.960689 41.960689 0 0 1-33.034092 42.074403l-45.144698 9.552027c-10.234314 24.789783-16.147474 51.171571-17.455191 78.065075l36.559245 28.42865a42.642976 42.642976 0 0 1 11.826318 52.593004l-20.866629 41.790117c12.679178 23.59578 29.28151 44.746696 49.067851 62.543032l44.689839-11.371461a41.221544 41.221544 0 0 1 47.703276 23.425208l19.104053 42.642977a225.268629 225.268629 0 0 0 78.690505 0l19.104054-42.642977a41.221544 41.221544 0 0 1 47.760133-23.36835l44.632982 11.37146c19.786341-17.853193 36.388673-39.004109 49.067851-62.543032l-20.86663-41.846974a42.642976 42.642976 0 0 1 11.826319-52.593004l36.559245-28.42865a234.024653 234.024653 0 0 0-17.455192-78.065075l-45.144697-9.49517a41.960689 41.960689 0 0 1-32.977235-42.13126l0.909717-46.850416A225.154914 225.154914 0 0 0 886.40533-127.43142699999999l-35.422098 30.020655a40.823542 40.823542 0 0 1-52.991005 0l-35.422099-30.020655z m61.917602 128.270072c51.455858 0 93.13226 42.472404 93.13226 94.837979 0 52.308717-41.676402 94.781122-93.13226 94.781122-51.455858 0-93.13226-42.415547-93.13226-94.781122s41.676402-94.837979 93.13226-94.837979z"  horiz-adv-x="1080" />

    
    <glyph glyph-name="-biz" unicode="&#58888;" d="M427.6736 319.43679999999995a11.52 11.52 0 0 0-8.1408 3.584L305.5616 434.3296a55.3984 55.3984 0 0 1-38.4 16.384H180.736c-8.0896 0-15.0016 9.4208-15.0016 20.5312 0 11.1104 6.912 20.5824 15.0016 20.5824h656.5376c8.1408 0 15.0528-9.472 15.0528-20.5824 0-11.1104-6.912-20.5824-15.0528-20.5824h-68.4032c-13.4656 0-26.7264-5.4272-37.3248-15.36l-112.7424-105.0624a37.6832 37.6832 0 0 0-25.9072-10.8032H427.6736z m-236.032 257.4336c-14.336 0-26.112 15.36-26.112 34.048 0 18.8416 11.6736 34.048 26.112 34.048h635.4944c13.9264 0 25.088-14.848 25.088-33.024v-1.1264c0-18.7904-11.5712-34.048-26.0096-34.048H191.5904v0.1024z m0 147.8144c-14.336 0-26.112 15.36-26.112 34.048 0 18.8416 11.6736 34.048 26.112 34.048h635.4944c13.9264 0 25.088-14.848 25.088-33.024v-1.1264c0-18.8416-11.5712-34.048-26.0096-34.048H191.5904v0.1024zM95.5392-20.326400000000035c-24.2688 0-44.032 25.344-44.032 56.3712V296.448c0 31.0784 19.7632 56.32 44.032 56.32h173.2096c6.3488 0 14.08 0 17.7664-0.1536l114.5856-114.688c10.9056-10.5984 24.5248-16.4864 38.5024-16.4864h154.88c13.4656 0 26.7264 5.4784 37.376 15.36l124.2112 115.9168h172.544c24.2176 0 43.9808-25.2928 43.9808-56.3712v-260.352c0-31.0272-19.7632-56.32-44.032-56.32H95.5392v0.0512z"  horiz-adv-x="1024" />

    
    <glyph glyph-name="-reports" unicode="&#58886;" d="M889.263158 334.632421A269.473684 269.473684 0 0 1 619.789474-128H134.736842a107.789474 107.789474 0 0 0-107.789474 107.789474V788.210526a107.789474 107.789474 0 0 0 107.789474 107.789474h646.736842a107.789474 107.789474 0 0 0 107.789474-107.789474v-453.578105zM242.526316 680.421053a53.894737 53.894737 0 1 1 0-107.789474h323.368421a53.894737 53.894737 0 0 1 0 107.789474H242.526316z m0-215.578948a53.894737 53.894737 0 1 1 0-107.789473h161.68421a53.894737 53.894737 0 0 1 0 107.789473H242.526316zM781.473684-128a215.578947 215.578947 0 1 0 0 431.157895 215.578947 215.578947 0 0 0 0-431.157895z m-103.639579 323.260632l73.566316-132.419369h-49.798737v-23.390316h63.002948l0.377263-0.377263v-32.444631h-63.380211v-23.390316h63.380211V-74.10526300000004h43.762526v57.344h63.757474v23.390316h-63.757474V39.07368399999996l0.377263 0.377263h63.380211v23.390316h-50.176l73.566316 132.419369h-49.798737L786.863158 79.44084199999998l-59.230316 115.81979h-49.798737z"  horiz-adv-x="1024" />

    
    <glyph glyph-name="-jiankong" unicode="&#58887;" d="M68.266667 896h887.466666A68.266667 68.266667 0 0 0 1024 827.733333v-648.533333a68.266667 68.266667 0 0 0-68.266667-68.266667H68.266667A68.266667 68.266667 0 0 0 0 179.20000000000005V827.733333A68.266667 68.266667 0 0 0 68.266667 896z m280.007111-443.050667l63.431111 127.544889 141.653333-259.868444c27.306667-49.948444 89.884444-52.565333 122.88-6.599111l86.983111 121.173333H853.333333a51.2 51.2 0 1 1 0 102.4h-116.337777a51.2 51.2 0 0 1-41.528889-21.276444l-75.093334-104.561778-149.731555 274.432c-28.558222 52.337778-95.004444 51.541333-121.799111-2.161778l-78.108445-157.013333H188.871111a51.2 51.2 0 0 1 0-102.4h113.607111a51.2 51.2 0 0 1 45.852445 28.444444v-0.113778zM204.8 8.53333299999997h614.4a68.266667 68.266667 0 0 0 0-136.533333H204.8a68.266667 68.266667 0 1 0 0 136.533333z"  horiz-adv-x="1024" />

    


  </font>
</defs>
</svg>
